<svg xmlns="http://www.w3.org/2000/svg" width="285.718994140625" height="265.8405456542969" viewBox="-31.824111938476562 -40.55256271362305 285.718994140625 265.8405456542969"><title>Neo4j Graph Visualization</title><desc>Created using Neo4j (http://www.neo4j.com/)</desc><g class="layer relationships"><g class="relationship" transform="translate(111.31855970924254 92.46876553006182) rotate(424.08356341559)"><path class="outline" fill="#A5ABB6" stroke="none" d="M 25 0.5 L 26.21374348004055 0.5 L 26.21374348004055 -0.5 L 25 -0.5 Z M 82.21374348004055 0.5 L 83.4274869600811 0.5 L 83.4274869600811 3.5 L 90.4274869600811 0 L 83.4274869600811 -3.5 L 83.4274869600811 -0.5 L 82.21374348004055 -0.5 Z"/><text text-anchor="middle" pointer-events="none" font-size="8px" fill="#000000" x="54.21374348004055" y="3" font-family="sans-serif">HAS_PUBLI…</text></g><g class="relationship" transform="translate(111.31855970924254 92.46876553006182) rotate(359.7551255787847)"><path class="outline" fill="#A5ABB6" stroke="none" d="M 25 0.5 L 25.288684774384265 0.5 L 25.288684774384265 -0.5 L 25 -0.5 Z M 81.28868477438427 0.5 L 81.57736954876853 0.5 L 81.57736954876853 3.5 L 88.57736954876853 0 L 81.57736954876853 -3.5 L 81.57736954876853 -0.5 L 81.28868477438427 -0.5 Z"/><text text-anchor="middle" pointer-events="none" font-size="8px" fill="#000000" x="53.288684774384265" y="3" font-family="sans-serif">HAS_PUBLI…</text></g><g class="relationship" transform="translate(111.31855970924254 92.46876553006182) rotate(293.64024380640876)"><path class="outline" fill="#A5ABB6" stroke="none" d="M 25 0.5 L 25.275161433961728 0.5 L 25.275161433961728 -0.5 L 25 -0.5 Z M 81.27516143396173 0.5 L 81.55032286792346 0.5 L 81.55032286792346 3.5 L 88.55032286792346 0 L 81.55032286792346 -3.5 L 81.55032286792346 -0.5 L 81.27516143396173 -0.5 Z"/><text text-anchor="middle" pointer-events="none" font-size="8px" fill="#000000" x="53.27516143396173" y="3" font-family="sans-serif">HAS_PUBLI…</text></g><g class="relationship" transform="translate(111.31855970924254 92.46876553006182) rotate(229.26822894122864)"><path class="outline" fill="#A5ABB6" stroke="none" d="M 25 0.5 L 26.19186941812808 0.5 L 26.19186941812808 -0.5 L 25 -0.5 Z M 82.19186941812808 0.5 L 83.38373883625616 0.5 L 83.38373883625616 3.5 L 90.38373883625616 0 L 83.38373883625616 -3.5 L 83.38373883625616 -0.5 L 82.19186941812808 -0.5 Z"/><text text-anchor="middle" pointer-events="none" font-size="8px" fill="#000000" x="54.19186941812808" y="3" transform="rotate(180 54.19186941812808 0)" font-family="sans-serif">HAS_PUBLI…</text></g><g class="relationship" transform="translate(111.31855970924254 92.46876553006182) rotate(533.4235718025741)"><path class="outline" fill="#A5ABB6" stroke="none" d="M 25 0.5 L 25.949354220590095 0.5 L 25.949354220590095 -0.5 L 25 -0.5 Z M 81.9493542205901 0.5 L 82.89870844118019 0.5 L 82.89870844118019 3.5 L 89.89870844118019 0 L 82.89870844118019 -3.5 L 82.89870844118019 -0.5 L 81.9493542205901 -0.5 Z"/><text text-anchor="middle" pointer-events="none" font-size="8px" fill="#000000" x="53.949354220590095" y="3" transform="rotate(180 53.949354220590095 0)" font-family="sans-serif">HAS_PUBLI…</text></g><g class="relationship" transform="translate(111.31855970924254 92.46876553006182) rotate(479.90686523303606)"><path class="outline" fill="#A5ABB6" stroke="none" d="M 25 0.5 L 25.961256586795002 0.5 L 25.961256586795002 -0.5 L 25 -0.5 Z M 81.961256586795 0.5 L 82.92251317359 0.5 L 82.92251317359 3.5 L 89.92251317359 0 L 82.92251317359 -3.5 L 82.92251317359 -0.5 L 81.961256586795 -0.5 Z"/><text text-anchor="middle" pointer-events="none" font-size="8px" fill="#000000" x="53.961256586795" y="3" transform="rotate(180 53.961256586795 0)" font-family="sans-serif">HAS_PUBLI…</text></g></g><g class="layer nodes"><g class="node" transform="translate(111.31855970924254,92.46876553006182)"><circle class="outline" cx="0" cy="0" r="25" fill="#DE9BF9" stroke="#BF85D6" stroke-width="2px"/><text text-anchor="middle" pointer-events="none" font-family="sans-serif" dy="1.5625" font-size="25" fill="#FFFFFF"/><text text-anchor="middle" pointer-events="none" font-family="sans-serif" dy="1.5625" font-size="25" fill="#FFFFFF"/><text class="caption" text-anchor="middle" pointer-events="none" y="0" font-size="10px" fill="#FFFFFF" font-family="sans-serif"> Bin</text><text class="caption" text-anchor="middle" pointer-events="none" y="10" font-size="10px" fill="#FFFFFF" font-family="sans-serif"> Wang</text></g><g class="node" transform="translate(161.7672773981116,196.28799125183497)"><circle class="outline" cx="0" cy="0" r="25" fill="#FB95AF" stroke="#E0849B" stroke-width="2px"/><text text-anchor="middle" pointer-events="none" font-family="sans-serif" dy="1.5625" font-size="25" fill="#FFFFFF"/><text text-anchor="middle" pointer-events="none" font-family="sans-serif" dy="1.5625" font-size="25" fill="#FFFFFF"/><text class="caption" text-anchor="middle" pointer-events="none" y="0" font-size="10px" fill="#FFFFFF" font-family="sans-serif"> On</text><text class="caption" text-anchor="middle" pointer-events="none" y="10" font-size="10px" fill="#FFFFFF" font-family="sans-serif"> Detect…</text></g><g class="node" transform="translate(224.8948919619478,91.98335267420012)"><circle class="outline" cx="0" cy="0" r="25" fill="#FB95AF" stroke="#E0849B" stroke-width="2px"/><text text-anchor="middle" pointer-events="none" font-family="sans-serif" dy="1.5625" font-size="25" fill="#FFFFFF"/><text text-anchor="middle" pointer-events="none" font-family="sans-serif" dy="1.5625" font-size="25" fill="#FFFFFF"/><text class="caption" text-anchor="middle" pointer-events="none" y="0" font-size="10px" fill="#FFFFFF" font-family="sans-serif"> Optimal</text><text class="caption" text-anchor="middle" pointer-events="none" y="10" font-size="10px" fill="#FFFFFF" font-family="sans-serif"> Voltage</text></g><g class="node" transform="translate(156.8513960622891,-11.552562268886897)"><circle class="outline" cx="0" cy="0" r="25" fill="#FB95AF" stroke="#E0849B" stroke-width="2px"/><text text-anchor="middle" pointer-events="none" font-family="sans-serif" dy="1.5625" font-size="25" fill="#FFFFFF"/><text class="caption" text-anchor="middle" pointer-events="none" y="5" font-size="10px" fill="#FFFFFF" font-family="sans-serif"> Autom…</text></g><g class="node" transform="translate(36.02851286853576,5.034126887487508)"><circle class="outline" cx="0" cy="0" r="25" fill="#FB95AF" stroke="#E0849B" stroke-width="2px"/><text text-anchor="middle" pointer-events="none" font-family="sans-serif" dy="1.5625" font-size="25" fill="#FFFFFF"/><text text-anchor="middle" pointer-events="none" font-family="sans-serif" dy="1.5625" font-size="25" fill="#FFFFFF"/><text text-anchor="middle" pointer-events="none" font-family="sans-serif" dy="1.5625" font-size="25" fill="#FFFFFF"/><text class="caption" text-anchor="middle" pointer-events="none" y="-5" font-size="10px" fill="#FFFFFF" font-family="sans-serif"> Green</text><text class="caption" text-anchor="middle" pointer-events="none" y="5" font-size="10px" fill="#FFFFFF" font-family="sans-serif"> cloud</text><text class="caption" text-anchor="middle" pointer-events="none" y="15" font-size="10px" fill="#FFFFFF" font-family="sans-serif"> virtual</text></g><g class="node" transform="translate(-2.824111475049869,105.62793785835947)"><circle class="outline" cx="0" cy="0" r="25" fill="#FB95AF" stroke="#E0849B" stroke-width="2px"/><text text-anchor="middle" pointer-events="none" font-family="sans-serif" dy="1.5625" font-size="25" fill="#FFFFFF"/><text text-anchor="middle" pointer-events="none" font-family="sans-serif" dy="1.5625" font-size="25" fill="#FFFFFF"/><text text-anchor="middle" pointer-events="none" font-family="sans-serif" dy="1.5625" font-size="25" fill="#FFFFFF"/><text class="caption" text-anchor="middle" pointer-events="none" y="-5" font-size="10px" fill="#FFFFFF" font-family="sans-serif"> Wall</text><text class="caption" text-anchor="middle" pointer-events="none" y="5" font-size="10px" fill="#FFFFFF" font-family="sans-serif"> grid</text><text class="caption" text-anchor="middle" pointer-events="none" y="15" font-size="10px" fill="#FFFFFF" font-family="sans-serif"> struct…</text></g><g class="node" transform="translate(54.01915900838828,192.08785362796056)"><circle class="outline" cx="0" cy="0" r="25" fill="#FB95AF" stroke="#E0849B" stroke-width="2px"/><text text-anchor="middle" pointer-events="none" font-family="sans-serif" dy="1.5625" font-size="25" fill="#FFFFFF"/><text class="caption" text-anchor="middle" pointer-events="none" y="5" font-size="10px" fill="#FFFFFF" font-family="sans-serif"> Autom…</text></g></g></svg>