<svg xmlns="http://www.w3.org/2000/svg" width="428.2777099609375" height="431.8862609863281" viewBox="-115.42593383789062 -121.07489013671875 428.2777099609375 431.8862609863281"><title>Neo4j Graph Visualization</title><desc>Created using Neo4j (http://www.neo4j.com/)</desc><g class="layer relationships"><g class="relationship" transform="translate(132.046652403177 275.7425031697718) rotate(259.09628962265515)"><path class="outline" fill="#A5ABB6" stroke="none" d="M 25 0.5 L 53.59762989122217 0.5 L 53.59762989122217 -0.5 L 25 -0.5 Z M 123.59762989122217 0.5 L 152.19525978244434 0.5 L 152.19525978244434 3.5 L 159.19525978244434 0 L 152.19525978244434 -3.5 L 152.19525978244434 -0.5 L 123.59762989122217 -0.5 Z"/><text text-anchor="middle" pointer-events="none" font-size="8px" fill="#000000" x="88.59762989122217" y="3" transform="rotate(180 88.59762989122217 0)" font-family="sans-serif">HAS_PUBLISHED</text></g><g class="relationship" transform="translate(143.3991659106367 216.22675402389862) rotate(249.16015372778088)"><path class="outline" fill="#A5ABB6" stroke="none" d="M 25 0.5 L 26.42452810055292 0.5 L 26.42452810055292 -0.5 L 25 -0.5 Z M 96.42452810055292 0.5 L 97.84905620110584 0.5 L 97.84905620110584 3.5 L 104.84905620110584 0 L 97.84905620110584 -3.5 L 97.84905620110584 -0.5 L 96.42452810055292 -0.5 Z"/><text text-anchor="middle" pointer-events="none" font-size="8px" fill="#000000" x="61.42452810055292" y="3" transform="rotate(180 61.42452810055292 0)" font-family="sans-serif">HAS_PUBLISHED</text></g><g class="relationship" transform="translate(195.13203898090043 253.44200505641706) rotate(238.30179568873234)"><path class="outline" fill="#A5ABB6" stroke="none" d="M 25 0.5 L 54.68538226274892 0.5 L 54.68538226274892 -0.5 L 25 -0.5 Z M 124.68538226274892 0.5 L 154.37076452549783 0.5 L 154.37076452549783 3.5 L 161.37076452549783 0 L 154.37076452549783 -3.5 L 154.37076452549783 -0.5 L 124.68538226274892 -0.5 Z"/><text text-anchor="middle" pointer-events="none" font-size="8px" fill="#000000" x="89.68538226274892" y="3" transform="rotate(180 89.68538226274892 0)" font-family="sans-serif">HAS_PUBLISHED</text></g><g class="relationship" transform="translate(196.2730457072119 176.79885473789187) rotate(219.5895501162546)"><path class="outline" fill="#A5ABB6" stroke="none" d="M 25 0.5 L 25.777705557486854 0.5 L 25.777705557486854 -0.5 L 25 -0.5 Z M 95.77770555748685 0.5 L 96.55541111497371 0.5 L 96.55541111497371 3.5 L 103.55541111497371 0 L 96.55541111497371 -3.5 L 96.55541111497371 -0.5 L 95.77770555748685 -0.5 Z"/><text text-anchor="middle" pointer-events="none" font-size="8px" fill="#000000" x="60.777705557486854" y="3" transform="rotate(180 60.777705557486854 0)" font-family="sans-serif">HAS_PUBLISHED</text></g><g class="relationship" transform="translate(243.07373306619533 214.32356181571262) rotate(219.3137155030572)"><path class="outline" fill="#A5ABB6" stroke="none" d="M 25 0.5 L 55.768730186798265 0.5 L 55.768730186798265 -0.5 L 25 -0.5 Z M 125.76873018679827 0.5 L 156.53746037359653 0.5 L 156.53746037359653 3.5 L 163.53746037359653 0 L 156.53746037359653 -3.5 L 156.53746037359653 -0.5 L 125.76873018679827 -0.5 Z"/><text text-anchor="middle" pointer-events="none" font-size="8px" fill="#000000" x="90.76873018679827" y="3" transform="rotate(180 90.76873018679827 0)" font-family="sans-serif">HAS_PUBLISHED</text></g><g class="relationship" transform="translate(77.24975229092841 222.64241021319657) rotate(278.87657631379125)"><path class="outline" fill="#A5ABB6" stroke="none" d="M 25 0.5 L 26.159318227835087 0.5 L 26.159318227835087 -0.5 L 25 -0.5 Z M 96.15931822783509 0.5 L 97.31863645567017 0.5 L 97.31863645567017 3.5 L 104.31863645567017 0 L 97.31863645567017 -3.5 L 97.31863645567017 -0.5 L 96.15931822783509 -0.5 Z"/><text text-anchor="middle" pointer-events="none" font-size="8px" fill="#000000" x="61.15931822783509" y="3" font-family="sans-serif">HAS_PUBLISHED</text></g><g class="relationship" transform="translate(272.0183030621635 157.5140643527017) rotate(199.71424125266628)"><path class="outline" fill="#A5ABB6" stroke="none" d="M 25 0.5 L 54.349114250503476 0.5 L 54.349114250503476 -0.5 L 25 -0.5 Z M 124.34911425050348 0.5 L 153.69822850100695 0.5 L 153.69822850100695 3.5 L 160.69822850100695 0 L 153.69822850100695 -3.5 L 153.69822850100695 -0.5 L 124.34911425050348 -0.5 Z"/><text text-anchor="middle" pointer-events="none" font-size="8px" fill="#000000" x="89.34911425050348" y="3" transform="rotate(180 89.34911425050348 0)" font-family="sans-serif">HAS_PUBLISHED</text></g><g class="relationship" transform="translate(215.6550604582283 51.43586990396585) rotate(519.8616241735916)"><path class="outline" fill="#A5ABB6" stroke="none" d="M 25 0.5 L 26.081885351983857 0.5 L 26.081885351983857 -0.5 L 25 -0.5 Z M 93.08188535198386 0.5 L 94.16377070396771 0.5 L 94.16377070396771 3.5 L 101.16377070396771 0 L 94.16377070396771 -3.5 L 94.16377070396771 -0.5 L 93.08188535198386 -0.5 Z"/><text text-anchor="middle" pointer-events="none" font-size="8px" fill="#000000" x="59.58188535198386" y="3" transform="rotate(180 59.58188535198386 0)" font-family="sans-serif">HAS_PUBLISH…</text></g><g class="relationship" transform="translate(283.85178657497516 90.89130556126776) rotate(538.7780277168937)"><path class="outline" fill="#A5ABB6" stroke="none" d="M 25 0.5 L 54.84489426813121 0.5 L 54.84489426813121 -0.5 L 25 -0.5 Z M 124.84489426813121 0.5 L 154.68978853626243 0.5 L 154.68978853626243 3.5 L 161.68978853626243 0 L 154.68978853626243 -3.5 L 154.68978853626243 -0.5 L 124.84489426813121 -0.5 Z"/><text text-anchor="middle" pointer-events="none" font-size="8px" fill="#000000" x="89.84489426813121" y="3" transform="rotate(180 89.84489426813121 0)" font-family="sans-serif">HAS_PUBLISHED</text></g><g class="relationship" transform="translate(271.20220909754704 28.796033435311873) rotate(519.2054564987691)"><path class="outline" fill="#A5ABB6" stroke="none" d="M 25 0.5 L 54.5609121648811 0.5 L 54.5609121648811 -0.5 L 25 -0.5 Z M 124.5609121648811 0.5 L 154.1218243297622 0.5 L 154.1218243297622 3.5 L 161.1218243297622 0 L 154.1218243297622 -3.5 L 154.1218243297622 -0.5 L 124.5609121648811 -0.5 Z"/><text text-anchor="middle" pointer-events="none" font-size="8px" fill="#000000" x="89.5609121648811" y="3" transform="rotate(180 89.5609121648811 0)" font-family="sans-serif">HAS_PUBLISHED</text></g><g class="relationship" transform="translate(228.9305092752775 115.76713747492053) rotate(189.01322175561103)"><path class="outline" fill="#A5ABB6" stroke="none" d="M 25 0.5 L 28.186457043398278 0.5 L 28.186457043398278 -0.5 L 25 -0.5 Z M 98.18645704339828 0.5 L 101.37291408679656 0.5 L 101.37291408679656 3.5 L 108.37291408679656 0 L 101.37291408679656 -3.5 L 101.37291408679656 -0.5 L 98.18645704339828 -0.5 Z"/><text text-anchor="middle" pointer-events="none" font-size="8px" fill="#000000" x="63.18645704339828" y="3" transform="rotate(180 63.18645704339828 0)" font-family="sans-serif">HAS_PUBLISHED</text></g><g class="relationship" transform="translate(240.05843848176636 -27.17774491395142) rotate(499.49036874423143)"><path class="outline" fill="#A5ABB6" stroke="none" d="M 25 0.5 L 55.44619715228383 0.5 L 55.44619715228383 -0.5 L 25 -0.5 Z M 125.44619715228383 0.5 L 155.89239430456766 0.5 L 155.89239430456766 3.5 L 162.89239430456766 0 L 155.89239430456766 -3.5 L 155.89239430456766 -0.5 L 125.44619715228383 -0.5 Z"/><text text-anchor="middle" pointer-events="none" font-size="8px" fill="#000000" x="90.44619715228383" y="3" transform="rotate(180 90.44619715228383 0)" font-family="sans-serif">HAS_PUBLISHED</text></g><g class="relationship" transform="translate(127.61461710740325 -32.20391351919449) rotate(463.45812339504425)"><path class="outline" fill="#A5ABB6" stroke="none" d="M 25 0.5 L 26.83227197049689 0.5 L 26.83227197049689 -0.5 L 25 -0.5 Z M 96.83227197049689 0.5 L 98.66454394099378 0.5 L 98.66454394099378 3.5 L 105.66454394099378 0 L 98.66454394099378 -3.5 L 98.66454394099378 -0.5 L 96.83227197049689 -0.5 Z"/><text text-anchor="middle" pointer-events="none" font-size="8px" fill="#000000" x="61.83227197049689" y="3" transform="rotate(180 61.83227197049689 0)" font-family="sans-serif">HAS_PUBLISHED</text></g><g class="relationship" transform="translate(187.9155557559756 -68.47774274529964) rotate(479.04412298634503)"><path class="outline" fill="#A5ABB6" stroke="none" d="M 25 0.5 L 54.92355753947524 0.5 L 54.92355753947524 -0.5 L 25 -0.5 Z M 124.92355753947524 0.5 L 154.84711507895048 0.5 L 154.84711507895048 3.5 L 161.84711507895048 0 L 154.84711507895048 -3.5 L 154.84711507895048 -0.5 L 124.92355753947524 -0.5 Z"/><text text-anchor="middle" pointer-events="none" font-size="8px" fill="#000000" x="89.92355753947524" y="3" transform="rotate(180 89.92355753947524 0)" font-family="sans-serif">HAS_PUBLISHED</text></g><g class="relationship" transform="translate(184.75810868329935 -3.9009786453457735) rotate(491.5540191815774)"><path class="outline" fill="#A5ABB6" stroke="none" d="M 25 0.5 L 27.49595784261318 0.5 L 27.49595784261318 -0.5 L 25 -0.5 Z M 97.49595784261318 0.5 L 99.99191568522636 0.5 L 99.99191568522636 3.5 L 106.99191568522636 0 L 99.99191568522636 -3.5 L 99.99191568522636 -0.5 L 97.49595784261318 -0.5 Z"/><text text-anchor="middle" pointer-events="none" font-size="8px" fill="#000000" x="62.49595784261318" y="3" transform="rotate(180 62.49595784261318 0)" font-family="sans-serif">HAS_PUBLISHED</text></g><g class="relationship" transform="translate(124.16571479179059 -92.07489047634952) rotate(458.206518798519)"><path class="outline" fill="#A5ABB6" stroke="none" d="M 25 0.5 L 55.940829080077265 0.5 L 55.940829080077265 -0.5 L 25 -0.5 Z M 125.94082908007726 0.5 L 156.88165816015453 0.5 L 156.88165816015453 3.5 L 163.88165816015453 0 L 156.88165816015453 -3.5 L 156.88165816015453 -0.5 L 125.94082908007726 -0.5 Z"/><text text-anchor="middle" pointer-events="none" font-size="8px" fill="#000000" x="90.94082908007726" y="3" transform="rotate(180 90.94082908007726 0)" font-family="sans-serif">HAS_PUBLISHED</text></g><g class="relationship" transform="translate(62.698274898284566 -86.63206430414691) rotate(439.2358510690348)"><path class="outline" fill="#A5ABB6" stroke="none" d="M 25 0.5 L 53.877792947542545 0.5 L 53.877792947542545 -0.5 L 25 -0.5 Z M 123.87779294754255 0.5 L 152.7555858950851 0.5 L 152.7555858950851 3.5 L 159.7555858950851 0 L 152.7555858950851 -3.5 L 152.7555858950851 -0.5 L 123.87779294754255 -0.5 Z"/><text text-anchor="middle" pointer-events="none" font-size="8px" fill="#000000" x="88.87779294754255" y="3" font-family="sans-serif">HAS_PUBLISHED</text></g><g class="relationship" transform="translate(2.8353675188444356 -64.77459896653068) rotate(419.4122362849575)"><path class="outline" fill="#A5ABB6" stroke="none" d="M 25 0.5 L 54.2264240970688 0.5 L 54.2264240970688 -0.5 L 25 -0.5 Z M 124.2264240970688 0.5 L 153.4528481941376 0.5 L 153.4528481941376 3.5 L 160.4528481941376 0 L 153.4528481941376 -3.5 L 153.4528481941376 -0.5 L 124.2264240970688 -0.5 Z"/><text text-anchor="middle" pointer-events="none" font-size="8px" fill="#000000" x="89.2264240970688" y="3" font-family="sans-serif">HAS_PUBLISHED</text></g><g class="relationship" transform="translate(58.68843573864805 -26.776670537835603) rotate(432.4314190189259)"><path class="outline" fill="#A5ABB6" stroke="none" d="M 25 0.5 L 25.300535632525452 0.5 L 25.300535632525452 -0.5 L 25 -0.5 Z M 95.30053563252545 0.5 L 95.6010712650509 0.5 L 95.6010712650509 3.5 L 102.6010712650509 0 L 95.6010712650509 -3.5 L 95.6010712650509 -0.5 L 95.30053563252545 -0.5 Z"/><text text-anchor="middle" pointer-events="none" font-size="8px" fill="#000000" x="60.30053563252545" y="3" font-family="sans-serif">HAS_PUBLISHED</text></g><g class="relationship" transform="translate(-46.73721672004866 -27.304610763197783) rotate(400.3244903772924)"><path class="outline" fill="#A5ABB6" stroke="none" d="M 25 0.5 L 55.90137762208542 0.5 L 55.90137762208542 -0.5 L 25 -0.5 Z M 125.90137762208542 0.5 L 156.80275524417084 0.5 L 156.80275524417084 3.5 L 163.80275524417084 0 L 156.80275524417084 -3.5 L 156.80275524417084 -0.5 L 125.90137762208542 -0.5 Z"/><text text-anchor="middle" pointer-events="none" font-size="8px" fill="#000000" x="90.90137762208542" y="3" font-family="sans-serif">HAS_PUBLISHED</text></g><g class="relationship" transform="translate(0.6461216396950206 9.46156610775123) rotate(401.4944927605694)"><path class="outline" fill="#A5ABB6" stroke="none" d="M 25 0.5 L 25.95649644461608 0.5 L 25.95649644461608 -0.5 L 25 -0.5 Z M 95.95649644461608 0.5 L 96.91299288923216 0.5 L 96.91299288923216 3.5 L 103.91299288923216 0 L 96.91299288923216 -3.5 L 96.91299288923216 -0.5 L 95.95649644461608 -0.5 Z"/><text text-anchor="middle" pointer-events="none" font-size="8px" fill="#000000" x="60.95649644461608" y="3" font-family="sans-serif">HAS_PUBLISHED</text></g><g class="relationship" transform="translate(-76.79025341688633 30.07708737559) rotate(380.4253024021118)"><path class="outline" fill="#A5ABB6" stroke="none" d="M 25 0.5 L 54.334017952219526 0.5 L 54.334017952219526 -0.5 L 25 -0.5 Z M 124.33401795221953 0.5 L 153.66803590443905 0.5 L 153.66803590443905 3.5 L 160.66803590443905 0 L 153.66803590443905 -3.5 L 153.66803590443905 -0.5 L 124.33401795221953 -0.5 Z"/><text text-anchor="middle" pointer-events="none" font-size="8px" fill="#000000" x="89.33401795221953" y="3" font-family="sans-serif">HAS_PUBLISHED</text></g><g class="relationship" transform="translate(-32.239956532109495 70.25150769128027) rotate(370.769361531317)"><path class="outline" fill="#A5ABB6" stroke="none" d="M 25 0.5 L 27.38257520488004 0.5 L 27.38257520488004 -0.5 L 25 -0.5 Z M 97.38257520488004 0.5 L 99.76515040976008 0.5 L 99.76515040976008 3.5 L 106.76515040976008 0 L 99.76515040976008 -3.5 L 99.76515040976008 -0.5 L 97.38257520488004 -0.5 Z"/><text text-anchor="middle" pointer-events="none" font-size="8px" fill="#000000" x="62.38257520488004" y="3" font-family="sans-serif">HAS_PUBLISHED</text></g><g class="relationship" transform="translate(-86.42593319730614 97.03923598397826) rotate(359.32401029052994)"><path class="outline" fill="#A5ABB6" stroke="none" d="M 25 0.5 L 53.32158487235064 0.5 L 53.32158487235064 -0.5 L 25 -0.5 Z M 123.32158487235064 0.5 L 151.64316974470128 0.5 L 151.64316974470128 3.5 L 158.64316974470128 0 L 151.64316974470128 -3.5 L 151.64316974470128 -0.5 L 123.32158487235064 -0.5 Z"/><text text-anchor="middle" pointer-events="none" font-size="8px" fill="#000000" x="88.32158487235064" y="3" font-family="sans-serif">HAS_PUBLISHED</text></g><g class="relationship" transform="translate(13.532183668458051 194.7783529724917) rotate(309.9465849510721)"><path class="outline" fill="#A5ABB6" stroke="none" d="M 25 0.5 L 26.657894240364968 0.5 L 26.657894240364968 -0.5 L 25 -0.5 Z M 96.65789424036497 0.5 L 98.31578848072994 0.5 L 98.31578848072994 3.5 L 105.31578848072994 0 L 98.31578848072994 -3.5 L 98.31578848072994 -0.5 L 96.65789424036497 -0.5 Z"/><text text-anchor="middle" pointer-events="none" font-size="8px" fill="#000000" x="61.65789424036497" y="3" font-family="sans-serif">HAS_PUBLISHED</text></g><g class="relationship" transform="translate(-22.281275492065213 140.57956076173426) rotate(339.06662069213644)"><path class="outline" fill="#A5ABB6" stroke="none" d="M 25 0.5 L 25.46476448891533 0.5 L 25.46476448891533 -0.5 L 25 -0.5 Z M 95.46476448891534 0.5 L 95.92952897783066 0.5 L 95.92952897783066 3.5 L 102.92952897783066 0 L 95.92952897783066 -3.5 L 95.92952897783066 -0.5 L 95.46476448891534 -0.5 Z"/><text text-anchor="middle" pointer-events="none" font-size="8px" fill="#000000" x="60.46476448891533" y="3" font-family="sans-serif">HAS_PUBLISHED</text></g><g class="relationship" transform="translate(-43.301746477746605 216.38735991418613) rotate(319.1455886696445)"><path class="outline" fill="#A5ABB6" stroke="none" d="M 25 0.5 L 54.38140960721516 0.5 L 54.38140960721516 -0.5 L 25 -0.5 Z M 124.38140960721516 0.5 L 153.76281921443032 0.5 L 153.76281921443032 3.5 L 160.76281921443032 0 L 153.76281921443032 -3.5 L 153.76281921443032 -0.5 L 124.38140960721516 -0.5 Z"/><text text-anchor="middle" pointer-events="none" font-size="8px" fill="#000000" x="89.38140960721516" y="3" font-family="sans-serif">HAS_PUBLISHED</text></g><g class="relationship" transform="translate(-78.75287096180922 160.74826776794563) rotate(339.47489213436256)"><path class="outline" fill="#A5ABB6" stroke="none" d="M 25 0.5 L 55.44224523643864 0.5 L 55.44224523643864 -0.5 L 25 -0.5 Z M 125.44224523643864 0.5 L 155.88449047287727 0.5 L 155.88449047287727 3.5 L 162.88449047287727 0 L 155.88449047287727 -3.5 L 155.88449047287727 -0.5 L 125.44224523643864 -0.5 Z"/><text text-anchor="middle" pointer-events="none" font-size="8px" fill="#000000" x="90.44224523643864" y="3" font-family="sans-serif">HAS_PUBLISHED</text></g><g class="relationship" transform="translate(67.57821497246549 281.81136698017724) rotate(279.00539715874294)"><path class="outline" fill="#A5ABB6" stroke="none" d="M 25 0.5 L 56.13589387169995 0.5 L 56.13589387169995 -0.5 L 25 -0.5 Z M 126.13589387169995 0.5 L 157.2717877433999 0.5 L 157.2717877433999 3.5 L 164.2717877433999 0 L 157.2717877433999 -3.5 L 157.2717877433999 -0.5 L 126.13589387169995 -0.5 Z"/><text text-anchor="middle" pointer-events="none" font-size="8px" fill="#000000" x="91.13589387169995" y="3" font-family="sans-serif">HAS_PUBLISHED</text></g><g class="relationship" transform="translate(8.306401250024596 256.35241978047344) rotate(298.83371587988245)"><path class="outline" fill="#A5ABB6" stroke="none" d="M 25 0.5 L 53.66641211525331 0.5 L 53.66641211525331 -0.5 L 25 -0.5 Z M 123.66641211525331 0.5 L 152.33282423050662 0.5 L 152.33282423050662 3.5 L 159.33282423050662 0 L 152.33282423050662 -3.5 L 152.33282423050662 -0.5 L 123.66641211525331 -0.5 Z"/><text text-anchor="middle" pointer-events="none" font-size="8px" fill="#000000" x="88.66641211525331" y="3" font-family="sans-serif">HAS_PUBLISHED</text></g></g><g class="layer nodes"><g class="node" transform="translate(97.20445525849394,94.8726189312585)"><circle class="outline" cx="0" cy="0" r="25" fill="#FB95AF" stroke="#E0849B" stroke-width="2px"/><text text-anchor="middle" pointer-events="none" font-family="sans-serif" dy="1.5625" font-size="25" fill="#FFFFFF"/><text class="caption" text-anchor="middle" pointer-events="none" y="5" font-size="10px" fill="#FFFFFF" font-family="sans-serif"> Massiv…</text></g><g class="node" transform="translate(132.046652403177,275.7425031697718)"><circle class="outline" cx="0" cy="0" r="25" fill="#DE9BF9" stroke="#BF85D6" stroke-width="2px"/><text text-anchor="middle" pointer-events="none" font-family="sans-serif" dy="1.5625" font-size="25" fill="#FFFFFF"/><text text-anchor="middle" pointer-events="none" font-family="sans-serif" dy="1.5625" font-size="25" fill="#FFFFFF"/><text class="caption" text-anchor="middle" pointer-events="none" y="0" font-size="10px" fill="#FFFFFF" font-family="sans-serif"> Syavash</text><text class="caption" text-anchor="middle" pointer-events="none" y="10" font-size="10px" fill="#FFFFFF" font-family="sans-serif"> Nobara…</text></g><g class="node" transform="translate(143.3991659106367,216.22675402389862)"><circle class="outline" cx="0" cy="0" r="25" fill="#DE9BF9" stroke="#BF85D6" stroke-width="2px"/><text text-anchor="middle" pointer-events="none" font-family="sans-serif" dy="1.5625" font-size="25" fill="#FFFFFF"/><text text-anchor="middle" pointer-events="none" font-family="sans-serif" dy="1.5625" font-size="25" fill="#FFFFFF"/><text class="caption" text-anchor="middle" pointer-events="none" y="0" font-size="10px" fill="#FFFFFF" font-family="sans-serif"> Marco</text><text class="caption" text-anchor="middle" pointer-events="none" y="10" font-size="10px" fill="#FFFFFF" font-family="sans-serif"> Lazzari</text></g><g class="node" transform="translate(195.13203898090043,253.44200505641706)"><circle class="outline" cx="0" cy="0" r="25" fill="#DE9BF9" stroke="#BF85D6" stroke-width="2px"/><text text-anchor="middle" pointer-events="none" font-family="sans-serif" dy="1.5625" font-size="25" fill="#FFFFFF"/><text text-anchor="middle" pointer-events="none" font-family="sans-serif" dy="1.5625" font-size="25" fill="#FFFFFF"/><text class="caption" text-anchor="middle" pointer-events="none" y="0" font-size="10px" fill="#FFFFFF" font-family="sans-serif"> Martin</text><text class="caption" text-anchor="middle" pointer-events="none" y="10" font-size="10px" fill="#FFFFFF" font-family="sans-serif"> Mahaux</text></g><g class="node" transform="translate(196.2730457072119,176.79885473789187)"><circle class="outline" cx="0" cy="0" r="25" fill="#DE9BF9" stroke="#BF85D6" stroke-width="2px"/><text text-anchor="middle" pointer-events="none" font-family="sans-serif" dy="1.5625" font-size="25" fill="#FFFFFF"/><text text-anchor="middle" pointer-events="none" font-family="sans-serif" dy="1.5625" font-size="25" fill="#FFFFFF"/><text class="caption" text-anchor="middle" pointer-events="none" y="0" font-size="10px" fill="#FFFFFF" font-family="sans-serif"> Gary M.</text><text class="caption" text-anchor="middle" pointer-events="none" y="10" font-size="10px" fill="#FFFFFF" font-family="sans-serif"> Olson</text></g><g class="node" transform="translate(243.07373306619533,214.32356181571262)"><circle class="outline" cx="0" cy="0" r="25" fill="#DE9BF9" stroke="#BF85D6" stroke-width="2px"/><text text-anchor="middle" pointer-events="none" font-family="sans-serif" dy="1.5625" font-size="25" fill="#FFFFFF"/><text class="caption" text-anchor="middle" pointer-events="none" y="5" font-size="10px" fill="#FFFFFF" font-family="sans-serif"> Joel Ross</text></g><g class="node" transform="translate(77.24975229092841,222.64241021319657)"><circle class="outline" cx="0" cy="0" r="25" fill="#DE9BF9" stroke="#BF85D6" stroke-width="2px"/><text text-anchor="middle" pointer-events="none" font-family="sans-serif" dy="1.5625" font-size="25" fill="#FFFFFF"/><text text-anchor="middle" pointer-events="none" font-family="sans-serif" dy="1.5625" font-size="25" fill="#FFFFFF"/><text class="caption" text-anchor="middle" pointer-events="none" y="0" font-size="10px" fill="#FFFFFF" font-family="sans-serif"> Jeff</text><text class="caption" text-anchor="middle" pointer-events="none" y="10" font-size="10px" fill="#FFFFFF" font-family="sans-serif"> Huang</text></g><g class="node" transform="translate(272.0183030621635,157.5140643527017)"><circle class="outline" cx="0" cy="0" r="25" fill="#DE9BF9" stroke="#BF85D6" stroke-width="2px"/><text text-anchor="middle" pointer-events="none" font-family="sans-serif" dy="1.5625" font-size="25" fill="#FFFFFF"/><text text-anchor="middle" pointer-events="none" font-family="sans-serif" dy="1.5625" font-size="25" fill="#FFFFFF"/><text class="caption" text-anchor="middle" pointer-events="none" y="0" font-size="10px" fill="#FFFFFF" font-family="sans-serif"> Bill</text><text class="caption" text-anchor="middle" pointer-events="none" y="10" font-size="10px" fill="#FFFFFF" font-family="sans-serif"> Tomlin…</text></g><g class="node" transform="translate(215.6550604582283,51.43586990396585)"><circle class="outline" cx="0" cy="0" r="25" fill="#DE9BF9" stroke="#BF85D6" stroke-width="2px"/><text text-anchor="middle" pointer-events="none" font-family="sans-serif" dy="1.5625" font-size="25" fill="#FFFFFF"/><text text-anchor="middle" pointer-events="none" font-family="sans-serif" dy="1.5625" font-size="25" fill="#FFFFFF"/><text class="caption" text-anchor="middle" pointer-events="none" y="0" font-size="10px" fill="#FFFFFF" font-family="sans-serif"> M. Six</text><text class="caption" text-anchor="middle" pointer-events="none" y="10" font-size="10px" fill="#FFFFFF" font-family="sans-serif"> Silber…</text></g><g class="node" transform="translate(283.85178657497516,90.89130556126776)"><circle class="outline" cx="0" cy="0" r="25" fill="#DE9BF9" stroke="#BF85D6" stroke-width="2px"/><text text-anchor="middle" pointer-events="none" font-family="sans-serif" dy="1.5625" font-size="25" fill="#FFFFFF"/><text text-anchor="middle" pointer-events="none" font-family="sans-serif" dy="1.5625" font-size="25" fill="#FFFFFF"/><text class="caption" text-anchor="middle" pointer-events="none" y="0" font-size="10px" fill="#FFFFFF" font-family="sans-serif"> Andrew</text><text class="caption" text-anchor="middle" pointer-events="none" y="10" font-size="10px" fill="#FFFFFF" font-family="sans-serif"> Torrance</text></g><g class="node" transform="translate(271.20220909754704,28.796033435311873)"><circle class="outline" cx="0" cy="0" r="25" fill="#DE9BF9" stroke="#BF85D6" stroke-width="2px"/><text text-anchor="middle" pointer-events="none" font-family="sans-serif" dy="1.5625" font-size="25" fill="#FFFFFF"/><text text-anchor="middle" pointer-events="none" font-family="sans-serif" dy="1.5625" font-size="25" fill="#FFFFFF"/><text class="caption" text-anchor="middle" pointer-events="none" y="0" font-size="10px" fill="#FFFFFF" font-family="sans-serif"> Birgit</text><text class="caption" text-anchor="middle" pointer-events="none" y="10" font-size="10px" fill="#FFFFFF" font-family="sans-serif"> Penzen…</text></g><g class="node" transform="translate(228.9305092752775,115.76713747492053)"><circle class="outline" cx="0" cy="0" r="25" fill="#DE9BF9" stroke="#BF85D6" stroke-width="2px"/><text text-anchor="middle" pointer-events="none" font-family="sans-serif" dy="1.5625" font-size="25" fill="#FFFFFF"/><text text-anchor="middle" pointer-events="none" font-family="sans-serif" dy="1.5625" font-size="25" fill="#FFFFFF"/><text class="caption" text-anchor="middle" pointer-events="none" y="0" font-size="10px" fill="#FFFFFF" font-family="sans-serif"> Nilufar</text><text class="caption" text-anchor="middle" pointer-events="none" y="10" font-size="10px" fill="#FFFFFF" font-family="sans-serif"> Baghaei</text></g><g class="node" transform="translate(240.05843848176636,-27.17774491395142)"><circle class="outline" cx="0" cy="0" r="25" fill="#DE9BF9" stroke="#BF85D6" stroke-width="2px"/><text text-anchor="middle" pointer-events="none" font-family="sans-serif" dy="1.5625" font-size="25" fill="#FFFFFF"/><text text-anchor="middle" pointer-events="none" font-family="sans-serif" dy="1.5625" font-size="25" fill="#FFFFFF"/><text class="caption" text-anchor="middle" pointer-events="none" y="0" font-size="10px" fill="#FFFFFF" font-family="sans-serif"> Craig</text><text class="caption" text-anchor="middle" pointer-events="none" y="10" font-size="10px" fill="#FFFFFF" font-family="sans-serif"> Saper</text></g><g class="node" transform="translate(127.61461710740325,-32.20391351919449)"><circle class="outline" cx="0" cy="0" r="25" fill="#DE9BF9" stroke="#BF85D6" stroke-width="2px"/><text text-anchor="middle" pointer-events="none" font-family="sans-serif" dy="1.5625" font-size="25" fill="#FFFFFF"/><text text-anchor="middle" pointer-events="none" font-family="sans-serif" dy="1.5625" font-size="25" fill="#FFFFFF"/><text class="caption" text-anchor="middle" pointer-events="none" y="0" font-size="10px" fill="#FFFFFF" font-family="sans-serif"> David</text><text class="caption" text-anchor="middle" pointer-events="none" y="10" font-size="10px" fill="#FFFFFF" font-family="sans-serif"> Callele</text></g><g class="node" transform="translate(187.9155557559756,-68.47774274529964)"><circle class="outline" cx="0" cy="0" r="25" fill="#DE9BF9" stroke="#BF85D6" stroke-width="2px"/><text text-anchor="middle" pointer-events="none" font-family="sans-serif" dy="1.5625" font-size="25" fill="#FFFFFF"/><text text-anchor="middle" pointer-events="none" font-family="sans-serif" dy="1.5625" font-size="25" fill="#FFFFFF"/><text class="caption" text-anchor="middle" pointer-events="none" y="0" font-size="10px" fill="#FFFFFF" font-family="sans-serif"> Johanna</text><text class="caption" text-anchor="middle" pointer-events="none" y="10" font-size="10px" fill="#FFFFFF" font-family="sans-serif"> Brewer</text></g><g class="node" transform="translate(184.75810868329935,-3.9009786453457735)"><circle class="outline" cx="0" cy="0" r="25" fill="#DE9BF9" stroke="#BF85D6" stroke-width="2px"/><text text-anchor="middle" pointer-events="none" font-family="sans-serif" dy="1.5625" font-size="25" fill="#FFFFFF"/><text text-anchor="middle" pointer-events="none" font-family="sans-serif" dy="1.5625" font-size="25" fill="#FFFFFF"/><text class="caption" text-anchor="middle" pointer-events="none" y="0" font-size="10px" fill="#FFFFFF" font-family="sans-serif"> Albert</text><text class="caption" text-anchor="middle" pointer-events="none" y="10" font-size="10px" fill="#FFFFFF" font-family="sans-serif"> Ali Sal…</text></g><g class="node" transform="translate(124.16571479179059,-92.07489047634952)"><circle class="outline" cx="0" cy="0" r="25" fill="#DE9BF9" stroke="#BF85D6" stroke-width="2px"/><text text-anchor="middle" pointer-events="none" font-family="sans-serif" dy="1.5625" font-size="25" fill="#FFFFFF"/><text text-anchor="middle" pointer-events="none" font-family="sans-serif" dy="1.5625" font-size="25" fill="#FFFFFF"/><text class="caption" text-anchor="middle" pointer-events="none" y="0" font-size="10px" fill="#FFFFFF" font-family="sans-serif"> Nitesh</text><text class="caption" text-anchor="middle" pointer-events="none" y="10" font-size="10px" fill="#FFFFFF" font-family="sans-serif"> Goyal</text></g><g class="node" transform="translate(62.698274898284566,-86.63206430414691)"><circle class="outline" cx="0" cy="0" r="25" fill="#DE9BF9" stroke="#BF85D6" stroke-width="2px"/><text text-anchor="middle" pointer-events="none" font-family="sans-serif" dy="1.5625" font-size="25" fill="#FFFFFF"/><text text-anchor="middle" pointer-events="none" font-family="sans-serif" dy="1.5625" font-size="25" fill="#FFFFFF"/><text class="caption" text-anchor="middle" pointer-events="none" y="0" font-size="10px" fill="#FFFFFF" font-family="sans-serif"> Eric</text><text class="caption" text-anchor="middle" pointer-events="none" y="10" font-size="10px" fill="#FFFFFF" font-family="sans-serif"> Baumer</text></g><g class="node" transform="translate(2.8353675188444356,-64.77459896653068)"><circle class="outline" cx="0" cy="0" r="25" fill="#DE9BF9" stroke="#BF85D6" stroke-width="2px"/><text text-anchor="middle" pointer-events="none" font-family="sans-serif" dy="1.5625" font-size="25" fill="#FFFFFF"/><text text-anchor="middle" pointer-events="none" font-family="sans-serif" dy="1.5625" font-size="25" fill="#FFFFFF"/><text class="caption" text-anchor="middle" pointer-events="none" y="0" font-size="10px" fill="#FFFFFF" font-family="sans-serif"> Marcus</text><text class="caption" text-anchor="middle" pointer-events="none" y="10" font-size="10px" fill="#FFFFFF" font-family="sans-serif"> Stnder</text></g><g class="node" transform="translate(58.68843573864805,-26.776670537835603)"><circle class="outline" cx="0" cy="0" r="25" fill="#DE9BF9" stroke="#BF85D6" stroke-width="2px"/><text text-anchor="middle" pointer-events="none" font-family="sans-serif" dy="1.5625" font-size="25" fill="#FFFFFF"/><text text-anchor="middle" pointer-events="none" font-family="sans-serif" dy="1.5625" font-size="25" fill="#FFFFFF"/><text class="caption" text-anchor="middle" pointer-events="none" y="0" font-size="10px" fill="#FFFFFF" font-family="sans-serif"> Pirjo</text><text class="caption" text-anchor="middle" pointer-events="none" y="10" font-size="10px" fill="#FFFFFF" font-family="sans-serif"> Nkki</text></g><g class="node" transform="translate(-46.73721672004866,-27.304610763197783)"><circle class="outline" cx="0" cy="0" r="25" fill="#DE9BF9" stroke="#BF85D6" stroke-width="2px"/><text text-anchor="middle" pointer-events="none" font-family="sans-serif" dy="1.5625" font-size="25" fill="#FFFFFF"/><text text-anchor="middle" pointer-events="none" font-family="sans-serif" dy="1.5625" font-size="25" fill="#FFFFFF"/><text class="caption" text-anchor="middle" pointer-events="none" y="0" font-size="10px" fill="#FFFFFF" font-family="sans-serif"> Fabio</text><text class="caption" text-anchor="middle" pointer-events="none" y="10" font-size="10px" fill="#FFFFFF" font-family="sans-serif"> Roman…</text></g><g class="node" transform="translate(0.6461216396950206,9.46156610775123)"><circle class="outline" cx="0" cy="0" r="25" fill="#DE9BF9" stroke="#BF85D6" stroke-width="2px"/><text text-anchor="middle" pointer-events="none" font-family="sans-serif" dy="1.5625" font-size="25" fill="#FFFFFF"/><text text-anchor="middle" pointer-events="none" font-family="sans-serif" dy="1.5625" font-size="25" fill="#FFFFFF"/><text class="caption" text-anchor="middle" pointer-events="none" y="0" font-size="10px" fill="#FFFFFF" font-family="sans-serif"> Paul</text><text class="caption" text-anchor="middle" pointer-events="none" y="10" font-size="10px" fill="#FFFFFF" font-family="sans-serif"> Andre</text></g><g class="node" transform="translate(-76.79025341688633,30.07708737559)"><circle class="outline" cx="0" cy="0" r="25" fill="#DE9BF9" stroke="#BF85D6" stroke-width="2px"/><text text-anchor="middle" pointer-events="none" font-family="sans-serif" dy="1.5625" font-size="25" fill="#FFFFFF"/><text class="caption" text-anchor="middle" pointer-events="none" y="5" font-size="10px" fill="#FFFFFF" font-family="sans-serif"> Rebecca</text></g><g class="node" transform="translate(-32.239956532109495,70.25150769128027)"><circle class="outline" cx="0" cy="0" r="25" fill="#DE9BF9" stroke="#BF85D6" stroke-width="2px"/><text text-anchor="middle" pointer-events="none" font-family="sans-serif" dy="1.5625" font-size="25" fill="#FFFFFF"/><text text-anchor="middle" pointer-events="none" font-family="sans-serif" dy="1.5625" font-size="25" fill="#FFFFFF"/><text text-anchor="middle" pointer-events="none" font-family="sans-serif" dy="1.5625" font-size="25" fill="#FFFFFF"/><text class="caption" text-anchor="middle" pointer-events="none" y="-5" font-size="10px" fill="#FFFFFF" font-family="sans-serif"> Florian</text><text class="caption" text-anchor="middle" pointer-events="none" y="5" font-size="10px" fill="#FFFFFF" font-family="sans-serif"> Mueller</text><text class="caption" text-anchor="middle" pointer-events="none" y="15" font-size="10px" fill="#FFFFFF" font-family="sans-serif"> 0001</text></g><g class="node" transform="translate(-86.42593319730614,97.03923598397826)"><circle class="outline" cx="0" cy="0" r="25" fill="#DE9BF9" stroke="#BF85D6" stroke-width="2px"/><text text-anchor="middle" pointer-events="none" font-family="sans-serif" dy="1.5625" font-size="25" fill="#FFFFFF"/><text text-anchor="middle" pointer-events="none" font-family="sans-serif" dy="1.5625" font-size="25" fill="#FFFFFF"/><text class="caption" text-anchor="middle" pointer-events="none" y="0" font-size="10px" fill="#FFFFFF" font-family="sans-serif"> Joseph</text><text class="caption" text-anchor="middle" pointer-events="none" y="10" font-size="10px" fill="#FFFFFF" font-family="sans-serif"> Kaye</text></g><g class="node" transform="translate(13.532183668458051,194.7783529724917)"><circle class="outline" cx="0" cy="0" r="25" fill="#DE9BF9" stroke="#BF85D6" stroke-width="2px"/><text text-anchor="middle" pointer-events="none" font-family="sans-serif" dy="1.5625" font-size="25" fill="#FFFFFF"/><text text-anchor="middle" pointer-events="none" font-family="sans-serif" dy="1.5625" font-size="25" fill="#FFFFFF"/><text class="caption" text-anchor="middle" pointer-events="none" y="0" font-size="10px" fill="#FFFFFF" font-family="sans-serif"> Joseph</text><text class="caption" text-anchor="middle" pointer-events="none" y="10" font-size="10px" fill="#FFFFFF" font-family="sans-serif"> Corneli</text></g><g class="node" transform="translate(-22.281275492065213,140.57956076173426)"><circle class="outline" cx="0" cy="0" r="25" fill="#DE9BF9" stroke="#BF85D6" stroke-width="2px"/><text text-anchor="middle" pointer-events="none" font-family="sans-serif" dy="1.5625" font-size="25" fill="#FFFFFF"/><text text-anchor="middle" pointer-events="none" font-family="sans-serif" dy="1.5625" font-size="25" fill="#FFFFFF"/><text text-anchor="middle" pointer-events="none" font-family="sans-serif" dy="1.5625" font-size="25" fill="#FFFFFF"/><text class="caption" text-anchor="middle" pointer-events="none" y="-5" font-size="10px" fill="#FFFFFF" font-family="sans-serif"> Marisa</text><text class="caption" text-anchor="middle" pointer-events="none" y="5" font-size="10px" fill="#FFFFFF" font-family="sans-serif"> Leavitt</text><text class="caption" text-anchor="middle" pointer-events="none" y="15" font-size="10px" fill="#FFFFFF" font-family="sans-serif"> Cohn</text></g><g class="node" transform="translate(-43.301746477746605,216.38735991418613)"><circle class="outline" cx="0" cy="0" r="25" fill="#DE9BF9" stroke="#BF85D6" stroke-width="2px"/><text text-anchor="middle" pointer-events="none" font-family="sans-serif" dy="1.5625" font-size="25" fill="#FFFFFF"/><text text-anchor="middle" pointer-events="none" font-family="sans-serif" dy="1.5625" font-size="25" fill="#FFFFFF"/><text class="caption" text-anchor="middle" pointer-events="none" y="0" font-size="10px" fill="#FFFFFF" font-family="sans-serif"> Eric</text><text class="caption" text-anchor="middle" pointer-events="none" y="10" font-size="10px" fill="#FFFFFF" font-family="sans-serif"> Morrill</text></g><g class="node" transform="translate(-78.75287096180922,160.74826776794563)"><circle class="outline" cx="0" cy="0" r="25" fill="#DE9BF9" stroke="#BF85D6" stroke-width="2px"/><text text-anchor="middle" pointer-events="none" font-family="sans-serif" dy="1.5625" font-size="25" fill="#FFFFFF"/><text text-anchor="middle" pointer-events="none" font-family="sans-serif" dy="1.5625" font-size="25" fill="#FFFFFF"/><text class="caption" text-anchor="middle" pointer-events="none" y="0" font-size="10px" fill="#FFFFFF" font-family="sans-serif"> Patrick</text><text class="caption" text-anchor="middle" pointer-events="none" y="10" font-size="10px" fill="#FFFFFF" font-family="sans-serif"> C. Shih</text></g><g class="node" transform="translate(67.57821497246549,281.81136698017724)"><circle class="outline" cx="0" cy="0" r="25" fill="#DE9BF9" stroke="#BF85D6" stroke-width="2px"/><text text-anchor="middle" pointer-events="none" font-family="sans-serif" dy="1.5625" font-size="25" fill="#FFFFFF"/><text text-anchor="middle" pointer-events="none" font-family="sans-serif" dy="1.5625" font-size="25" fill="#FFFFFF"/><text text-anchor="middle" pointer-events="none" font-family="sans-serif" dy="1.5625" font-size="25" fill="#FFFFFF"/><text class="caption" text-anchor="middle" pointer-events="none" y="-5" font-size="10px" fill="#FFFFFF" font-family="sans-serif"> Donald</text><text class="caption" text-anchor="middle" pointer-events="none" y="5" font-size="10px" fill="#FFFFFF" font-family="sans-serif"> J.</text><text class="caption" text-anchor="middle" pointer-events="none" y="15" font-size="10px" fill="#FFFFFF" font-family="sans-serif"> Patte…</text></g><g class="node" transform="translate(8.306401250024596,256.35241978047344)"><circle class="outline" cx="0" cy="0" r="25" fill="#DE9BF9" stroke="#BF85D6" stroke-width="2px"/><text text-anchor="middle" pointer-events="none" font-family="sans-serif" dy="1.5625" font-size="25" fill="#FFFFFF"/><text text-anchor="middle" pointer-events="none" font-family="sans-serif" dy="1.5625" font-size="25" fill="#FFFFFF"/><text class="caption" text-anchor="middle" pointer-events="none" y="0" font-size="10px" fill="#FFFFFF" font-family="sans-serif"> Xavier</text><text class="caption" text-anchor="middle" pointer-events="none" y="10" font-size="10px" fill="#FFFFFF" font-family="sans-serif"> Franch</text></g></g></svg>